<svg xmlns="http://www.w3.org/2000/svg" xmlns:xlink="http://www.w3.org/1999/xlink" width="25" height="27.273" viewBox="0 0 25 27.273">
  <defs>
    <clipPath id="clip-path">
      <path id="home" d="M23.418,6.657,14.159.509a2.957,2.957,0,0,0-3.317,0L1.583,6.657A3.713,3.713,0,0,0,0,9.759v13.9a3.441,3.441,0,0,0,3.239,3.612H8.775v-9.69a2.185,2.185,0,0,1,2.2-2.168h3.046a2.185,2.185,0,0,1,2.2,2.168v9.69H21.76A3.441,3.441,0,0,0,25,23.661V9.759a3.715,3.715,0,0,0-1.582-3.1" transform="translate(0 0)" fill="#2c2c2c"/>
    </clipPath>
  </defs>
  <g id="home_filled" clip-path="url(#clip-path)">
    <g id="color_primary" data-name="color/primary" transform="translate(-4.545 -3.409)">
      <rect id="color_primary_background" data-name="color/primary background" width="34.091" height="34.091" fill="#2c2c2c"/>
      <rect id="color_primary_copy" data-name="color/primary copy" width="34.091" height="34.091" fill="#2c2c2c"/>
    </g>
  </g>
</svg>
